<?xml version="1.0" encoding="UTF-8" standalone="no"?>
<!DOCTYPE svg PUBLIC "-//W3C//DTD SVG 1.1//EN"
 "http://www.w3.org/Graphics/SVG/1.1/DTD/svg11.dtd">
<!-- Generated by graphviz version 14.1.1 (20251213.1925)
 -->
<!-- Title: mag3110_register_test Pages: 1 -->
<svg width="446pt" height="1300pt"
 viewBox="0.00 0.00 446.00 1300.00" xmlns="http://www.w3.org/2000/svg" xmlns:xlink="http://www.w3.org/1999/xlink">
<g id="graph0" class="graph" transform="scale(1 1) rotate(0) translate(4 1296)">
<title>mag3110_register_test</title>
<!-- Node1 -->
<g id="Node000001" class="node">
<title>Node1</title>
<g id="a_Node000001"><a xlink:title="register test">
<polygon fill="#999999" stroke="#666666" points="114.25,-674 0,-674 0,-654 114.25,-654 114.25,-674"/>
<text xml:space="preserve" text-anchor="middle" x="57.12" y="-660.5" font-family="Helvetica,sans-Serif" font-size="10.00">mag3110_register_test</text>
</a>
</g>
</g>
<!-- Node2 -->
<g id="Node000002" class="node">
<title>Node2</title>
<g id="a_Node000002"><a xlink:href="group__mag3110__base__driver.html#ga5d0a310e319f76abdc2481935ba441b5" target="_top" xlink:title="close the chip">
<polygon fill="white" stroke="#666666" points="266.38,-1292 182.88,-1292 182.88,-1272 266.38,-1272 266.38,-1292"/>
<text xml:space="preserve" text-anchor="middle" x="224.62" y="-1278.5" font-family="Helvetica,sans-Serif" font-size="10.00">mag3110_deinit</text>
</a>
</g>
</g>
<!-- Node1&#45;&gt;Node2 -->
<g id="edge1_Node000001_Node000002" class="edge">
<title>Node1&#45;&gt;Node2</title>
<g id="a_edge1_Node000001_Node000002"><a xlink:title=" ">
<path fill="none" stroke="#63b8ff" d="M58.22,-674.49C59.09,-746.83 67.7,-1171.68 150.25,-1263 156.02,-1269.38 163.62,-1273.74 171.75,-1276.7"/>
<polygon fill="#63b8ff" stroke="#63b8ff" points="170.6,-1280.01 181.17,-1279.41 172.53,-1273.28 170.6,-1280.01"/>
</a>
</g>
</g>
<!-- Node3 -->
<g id="Node000003" class="node">
<title>Node3</title>
<g id="a_Node000003"><a xlink:href="group__mag3110__base__driver.html#ga0e62102e3e5db8ce004175db92943526" target="_top" xlink:title="get data ready status">
<polygon fill="white" stroke="#666666" points="288.12,-1254 161.12,-1254 161.12,-1222 288.12,-1222 288.12,-1254"/>
<text xml:space="preserve" text-anchor="start" x="169.12" y="-1240.5" font-family="Helvetica,sans-Serif" font-size="10.00">mag3110_get_data_ready</text>
<text xml:space="preserve" text-anchor="middle" x="224.62" y="-1228.5" font-family="Helvetica,sans-Serif" font-size="10.00">_status</text>
</a>
</g>
</g>
<!-- Node1&#45;&gt;Node3 -->
<g id="edge2_Node000001_Node000003" class="edge">
<title>Node1&#45;&gt;Node3</title>
<g id="a_edge2_Node000001_Node000003"><a xlink:title=" ">
<path fill="none" stroke="#63b8ff" d="M58.46,-674.42C60.83,-742.8 77.34,-1127.2 150.25,-1213 150.82,-1213.67 151.41,-1214.33 152.02,-1214.97"/>
<polygon fill="#63b8ff" stroke="#63b8ff" points="149.73,-1217.61 159.65,-1221.33 154.21,-1212.23 149.73,-1217.61"/>
</a>
</g>
</g>
<!-- Node4 -->
<g id="Node000004" class="node">
<title>Node4</title>
<g id="a_Node000004"><a xlink:href="group__mag3110__base__driver.html#gae3df2cc2526977b69e231df91244768b" target="_top" xlink:title="get offset correction status">
<polygon fill="white" stroke="#666666" points="279.5,-1204 169.75,-1204 169.75,-1172 279.5,-1172 279.5,-1204"/>
<text xml:space="preserve" text-anchor="start" x="177.75" y="-1190.5" font-family="Helvetica,sans-Serif" font-size="10.00">mag3110_get_disable</text>
<text xml:space="preserve" text-anchor="middle" x="224.62" y="-1178.5" font-family="Helvetica,sans-Serif" font-size="10.00">_offset_correction</text>
</a>
</g>
</g>
<!-- Node1&#45;&gt;Node4 -->
<g id="edge3_Node000001_Node000004" class="edge">
<title>Node1&#45;&gt;Node4</title>
<g id="a_edge3_Node000001_Node000004"><a xlink:title=" ">
<path fill="none" stroke="#63b8ff" d="M58.64,-674.3C62.06,-738.68 83.45,-1085.67 150.25,-1163 153.01,-1166.19 156.19,-1168.98 159.65,-1171.41"/>
<polygon fill="#63b8ff" stroke="#63b8ff" points="157.65,-1174.29 168.06,-1176.29 161.17,-1168.24 157.65,-1174.29"/>
</a>
</g>
</g>
<!-- Node5 -->
<g id="Node000005" class="node">
<title>Node5</title>
<g id="a_Node000005"><a xlink:href="group__mag3110__base__driver.html#ga2db7be7ea0babd3f440dc71d8330bee7" target="_top" xlink:title="get fast read mode status">
<polygon fill="white" stroke="#666666" points="299,-1154 150.25,-1154 150.25,-1134 299,-1134 299,-1154"/>
<text xml:space="preserve" text-anchor="middle" x="224.62" y="-1140.5" font-family="Helvetica,sans-Serif" font-size="10.00">mag3110_get_fast_read_mode</text>
</a>
</g>
</g>
<!-- Node1&#45;&gt;Node5 -->
<g id="edge4_Node000001_Node000005" class="edge">
<title>Node1&#45;&gt;Node5</title>
<g id="a_edge4_Node000001_Node000005"><a xlink:title=" ">
<path fill="none" stroke="#63b8ff" d="M58.82,-674.2C63.13,-735.1 88.25,-1050.3 150.25,-1120 152.91,-1122.99 155.96,-1125.62 159.25,-1127.91"/>
<polygon fill="#63b8ff" stroke="#63b8ff" points="157.38,-1130.88 167.8,-1132.81 160.86,-1124.8 157.38,-1130.88"/>
</a>
</g>
</g>
<!-- Node6 -->
<g id="Node000006" class="node">
<title>Node6</title>
<g id="a_Node000006"><a xlink:href="group__mag3110__base__driver.html#gac76951f307d173b45729dd0db8aecdac" target="_top" xlink:title="get mode">
<polygon fill="white" stroke="#666666" points="438,-1072 335,-1072 335,-1052 438,-1052 438,-1072"/>
<text xml:space="preserve" text-anchor="middle" x="386.5" y="-1058.5" font-family="Helvetica,sans-Serif" font-size="10.00">mag3110_get_mode</text>
</a>
</g>
</g>
<!-- Node1&#45;&gt;Node6 -->
<g id="edge5_Node000001_Node000006" class="edge">
<title>Node1&#45;&gt;Node6</title>
<g id="a_edge5_Node000001_Node000006"><a xlink:title=" ">
<path fill="none" stroke="#63b8ff" d="M58.68,-674.14C62.13,-733.25 82.8,-1032.66 150.25,-1087 209.72,-1134.91 306.9,-1100.04 355.65,-1077.36"/>
<polygon fill="#63b8ff" stroke="#63b8ff" points="356.97,-1080.6 364.47,-1073.12 353.94,-1074.29 356.97,-1080.6"/>
</a>
</g>
</g>
<!-- Node7 -->
<g id="Node000007" class="node">
<title>Node7</title>
<g id="a_Node000007"><a xlink:href="group__mag3110__base__driver.html#ga8cb6de7cd03085f2e20f64b1c77935e5" target="_top" xlink:title="get mode status">
<polygon fill="white" stroke="#666666" points="292.25,-952 157,-952 157,-932 292.25,-932 292.25,-952"/>
<text xml:space="preserve" text-anchor="middle" x="224.62" y="-938.5" font-family="Helvetica,sans-Serif" font-size="10.00">mag3110_get_mode_status</text>
</a>
</g>
</g>
<!-- Node1&#45;&gt;Node7 -->
<g id="edge6_Node000001_Node000007" class="edge">
<title>Node1&#45;&gt;Node7</title>
<g id="a_edge6_Node000001_Node000007"><a xlink:title=" ">
<path fill="none" stroke="#63b8ff" d="M58.51,-674.24C60.54,-713.06 73.15,-852.43 150.25,-923 151.31,-923.97 152.42,-924.9 153.57,-925.78"/>
<polygon fill="#63b8ff" stroke="#63b8ff" points="151.38,-928.54 161.72,-930.86 155.08,-922.6 151.38,-928.54"/>
</a>
</g>
</g>
<!-- Node8 -->
<g id="Node000008" class="node">
<title>Node8</title>
<g id="a_Node000008"><a xlink:href="group__mag3110__base__driver.html#ga757081ee2c87dcd48dc1c7e7892eb761" target="_top" xlink:title="get offset x">
<polygon fill="white" stroke="#666666" points="281.38,-914 167.88,-914 167.88,-894 281.38,-894 281.38,-914"/>
<text xml:space="preserve" text-anchor="middle" x="224.62" y="-900.5" font-family="Helvetica,sans-Serif" font-size="10.00">mag3110_get_offset_x</text>
</a>
</g>
</g>
<!-- Node1&#45;&gt;Node8 -->
<g id="edge7_Node000001_Node000008" class="edge">
<title>Node1&#45;&gt;Node8</title>
<g id="a_edge7_Node000001_Node000008"><a xlink:title=" ">
<path fill="none" stroke="#63b8ff" d="M59.23,-674.44C63.56,-709.82 82.59,-826.3 150.25,-885 152.47,-886.92 154.86,-888.66 157.37,-890.22"/>
<polygon fill="#63b8ff" stroke="#63b8ff" points="155.73,-893.31 166.23,-894.73 158.91,-887.07 155.73,-893.31"/>
</a>
</g>
</g>
<!-- Node9 -->
<g id="Node000009" class="node">
<title>Node9</title>
<g id="a_Node000009"><a xlink:href="group__mag3110__base__driver.html#ga2e7e1544e059edaae283a69a2b6c9e25" target="_top" xlink:title="get offset y">
<polygon fill="white" stroke="#666666" points="281.38,-876 167.88,-876 167.88,-856 281.38,-856 281.38,-876"/>
<text xml:space="preserve" text-anchor="middle" x="224.62" y="-862.5" font-family="Helvetica,sans-Serif" font-size="10.00">mag3110_get_offset_y</text>
</a>
</g>
</g>
<!-- Node1&#45;&gt;Node9 -->
<g id="edge8_Node000001_Node000009" class="edge">
<title>Node1&#45;&gt;Node9</title>
<g id="a_edge8_Node000001_Node000009"><a xlink:title=" ">
<path fill="none" stroke="#63b8ff" d="M60.15,-674.16C66.9,-705.22 91.56,-799.65 150.25,-847 152.49,-848.81 154.88,-850.44 157.39,-851.93"/>
<polygon fill="#63b8ff" stroke="#63b8ff" points="155.63,-854.96 166.14,-856.25 158.72,-848.68 155.63,-854.96"/>
</a>
</g>
</g>
<!-- Node10 -->
<g id="Node000010" class="node">
<title>Node10</title>
<g id="a_Node000010"><a xlink:href="group__mag3110__base__driver.html#gae534903e49b3a747a6eeb550aa2fa813" target="_top" xlink:title="get offset z">
<polygon fill="white" stroke="#666666" points="281.38,-838 167.88,-838 167.88,-818 281.38,-818 281.38,-838"/>
<text xml:space="preserve" text-anchor="middle" x="224.62" y="-824.5" font-family="Helvetica,sans-Serif" font-size="10.00">mag3110_get_offset_z</text>
</a>
</g>
</g>
<!-- Node1&#45;&gt;Node10 -->
<g id="edge9_Node000001_Node000010" class="edge">
<title>Node1&#45;&gt;Node10</title>
<g id="a_edge9_Node000001_Node000010"><a xlink:title=" ">
<path fill="none" stroke="#63b8ff" d="M61.61,-674.3C71.19,-700.99 100.57,-772.85 150.25,-809 152.45,-810.6 154.77,-812.07 157.18,-813.41"/>
<polygon fill="#63b8ff" stroke="#63b8ff" points="155.6,-816.53 166.14,-817.62 158.58,-810.2 155.6,-816.53"/>
</a>
</g>
</g>
<!-- Node11 -->
<g id="Node000011" class="node">
<title>Node11</title>
<g id="a_Node000011"><a xlink:href="group__mag3110__base__driver.html#ga85274d905ca4e4052d428b6f0b8fd2f5" target="_top" xlink:title="get rate over sample">
<polygon fill="white" stroke="#666666" points="284.38,-800 164.88,-800 164.88,-768 284.38,-768 284.38,-800"/>
<text xml:space="preserve" text-anchor="start" x="172.88" y="-786.5" font-family="Helvetica,sans-Serif" font-size="10.00">mag3110_get_rate_over</text>
<text xml:space="preserve" text-anchor="middle" x="224.62" y="-774.5" font-family="Helvetica,sans-Serif" font-size="10.00">_sample</text>
</a>
</g>
</g>
<!-- Node1&#45;&gt;Node11 -->
<g id="edge10_Node000001_Node000011" class="edge">
<title>Node1&#45;&gt;Node11</title>
<g id="a_edge10_Node000001_Node000011"><a xlink:title=" ">
<path fill="none" stroke="#63b8ff" d="M65.53,-674.42C79.8,-693.76 112.98,-735.4 150.25,-759 152.25,-760.27 154.32,-761.48 156.44,-762.63"/>
<polygon fill="#63b8ff" stroke="#63b8ff" points="154.8,-765.73 165.32,-766.98 157.88,-759.44 154.8,-765.73"/>
</a>
</g>
</g>
<!-- Node12 -->
<g id="Node000012" class="node">
<title>Node12</title>
<g id="a_Node000012"><a xlink:href="group__mag3110__base__driver.html#ga27cf9533dd58f604578d52463d7fe50a" target="_top" xlink:title="get trigger mode status">
<polygon fill="white" stroke="#666666" points="292.25,-750 157,-750 157,-730 292.25,-730 292.25,-750"/>
<text xml:space="preserve" text-anchor="middle" x="224.62" y="-736.5" font-family="Helvetica,sans-Serif" font-size="10.00">mag3110_get_trigger_mode</text>
</a>
</g>
</g>
<!-- Node1&#45;&gt;Node12 -->
<g id="edge11_Node000001_Node000012" class="edge">
<title>Node1&#45;&gt;Node12</title>
<g id="a_edge11_Node000001_Node000012"><a xlink:title=" ">
<path fill="none" stroke="#63b8ff" d="M71.76,-674.28C89.14,-686.93 120.5,-708.29 150.25,-721 154.61,-722.86 159.19,-724.57 163.85,-726.14"/>
<polygon fill="#63b8ff" stroke="#63b8ff" points="162.75,-729.47 173.34,-729.1 164.83,-722.79 162.75,-729.47"/>
</a>
</g>
</g>
<!-- Node13 -->
<g id="Node000013" class="node">
<title>Node13</title>
<g id="a_Node000013"><a xlink:href="group__mag3110__base__driver.html#ga09eed3b6a3c5b0b9c5532490431d8817" target="_top" xlink:title="get chip&#39;s information">
<polygon fill="white" stroke="#666666" points="262.62,-712 186.62,-712 186.62,-692 262.62,-692 262.62,-712"/>
<text xml:space="preserve" text-anchor="middle" x="224.62" y="-698.5" font-family="Helvetica,sans-Serif" font-size="10.00">mag3110_info</text>
</a>
</g>
</g>
<!-- Node1&#45;&gt;Node13 -->
<g id="edge12_Node000001_Node000013" class="edge">
<title>Node1&#45;&gt;Node13</title>
<g id="a_edge12_Node000001_Node000013"><a xlink:title=" ">
<path fill="none" stroke="#63b8ff" d="M103.79,-674.48C125.97,-679.58 152.63,-685.7 175.17,-690.87"/>
<polygon fill="#63b8ff" stroke="#63b8ff" points="174.2,-694.24 184.73,-693.07 175.76,-687.42 174.2,-694.24"/>
</a>
</g>
</g>
<!-- Node14 -->
<g id="Node000014" class="node">
<title>Node14</title>
<g id="a_Node000014"><a xlink:href="group__mag3110__base__driver.html#ga5ec94e152f5623b0432a41d9588b81b5" target="_top" xlink:title="initialize the chip">
<polygon fill="white" stroke="#666666" points="261.12,-674 188.12,-674 188.12,-654 261.12,-654 261.12,-674"/>
<text xml:space="preserve" text-anchor="middle" x="224.62" y="-660.5" font-family="Helvetica,sans-Serif" font-size="10.00">mag3110_init</text>
</a>
</g>
</g>
<!-- Node1&#45;&gt;Node14 -->
<g id="edge13_Node000001_Node000014" class="edge">
<title>Node1&#45;&gt;Node14</title>
<g id="a_edge13_Node000001_Node000014"><a xlink:title=" ">
<path fill="none" stroke="#63b8ff" d="M114.62,-664C134.87,-664 157.47,-664 176.82,-664"/>
<polygon fill="#63b8ff" stroke="#63b8ff" points="176.58,-667.5 186.58,-664 176.58,-660.5 176.58,-667.5"/>
</a>
</g>
</g>
<!-- Node15 -->
<g id="Node000015" class="node">
<title>Node15</title>
<g id="a_Node000015"><a xlink:href="group__mag3110__interface__driver.html#gafe840b07e3e072ad18eabf7ba4632347" target="_top" xlink:title="interface print format data">
<polygon fill="white" stroke="#666666" points="289.25,-636 160,-636 160,-604 289.25,-604 289.25,-636"/>
<text xml:space="preserve" text-anchor="start" x="168" y="-622.5" font-family="Helvetica,sans-Serif" font-size="10.00">mag3110_interface_debug</text>
<text xml:space="preserve" text-anchor="middle" x="224.62" y="-610.5" font-family="Helvetica,sans-Serif" font-size="10.00">_print</text>
</a>
</g>
</g>
<!-- Node1&#45;&gt;Node15 -->
<g id="edge14_Node000001_Node000015" class="edge">
<title>Node1&#45;&gt;Node15</title>
<g id="a_edge14_Node000001_Node000015"><a xlink:title=" ">
<path fill="none" stroke="#63b8ff" d="M97.35,-653.57C113.33,-649.32 132.35,-644.27 150.71,-639.39"/>
<polygon fill="#63b8ff" stroke="#63b8ff" points="151.49,-642.8 160.25,-636.85 149.69,-636.03 151.49,-642.8"/>
</a>
</g>
</g>
<!-- Node16 -->
<g id="Node000016" class="node">
<title>Node16</title>
<g id="a_Node000016"><a xlink:href="group__mag3110__interface__driver.html#ga3d6c8490b638590b9429ff7323e36616" target="_top" xlink:title="interface delay ms">
<polygon fill="white" stroke="#666666" points="297.12,-586 152.12,-586 152.12,-566 297.12,-566 297.12,-586"/>
<text xml:space="preserve" text-anchor="middle" x="224.62" y="-572.5" font-family="Helvetica,sans-Serif" font-size="10.00">mag3110_interface_delay_ms</text>
</a>
</g>
</g>
<!-- Node1&#45;&gt;Node16 -->
<g id="edge15_Node000001_Node000016" class="edge">
<title>Node1&#45;&gt;Node16</title>
<g id="a_edge15_Node000001_Node000016"><a xlink:title=" ">
<path fill="none" stroke="#63b8ff" d="M68.82,-653.74C85.1,-638.67 117.65,-610.67 150.25,-595 153.97,-593.21 157.87,-591.58 161.87,-590.09"/>
<polygon fill="#63b8ff" stroke="#63b8ff" points="162.79,-593.47 171.14,-586.95 160.55,-586.84 162.79,-593.47"/>
</a>
</g>
</g>
<!-- Node17 -->
<g id="Node000017" class="node">
<title>Node17</title>
<g id="a_Node000017"><a xlink:href="group__mag3110__interface__driver.html#ga3a78cb54ffd664ff1d4633d3a6b27eb3" target="_top" xlink:title="interface iic bus deinit">
<polygon fill="white" stroke="#666666" points="281,-548 168.25,-548 168.25,-516 281,-516 281,-548"/>
<text xml:space="preserve" text-anchor="start" x="176.25" y="-534.5" font-family="Helvetica,sans-Serif" font-size="10.00">mag3110_interface_iic</text>
<text xml:space="preserve" text-anchor="middle" x="224.62" y="-522.5" font-family="Helvetica,sans-Serif" font-size="10.00">_deinit</text>
</a>
</g>
</g>
<!-- Node1&#45;&gt;Node17 -->
<g id="edge16_Node000001_Node000017" class="edge">
<title>Node1&#45;&gt;Node17</title>
<g id="a_edge16_Node000001_Node000017"><a xlink:title=" ">
<path fill="none" stroke="#63b8ff" d="M64.37,-653.55C77.59,-632.33 110.44,-583.9 150.25,-557 152.64,-555.38 155.15,-553.86 157.73,-552.44"/>
<polygon fill="#63b8ff" stroke="#63b8ff" points="159.23,-555.6 166.65,-548.03 156.13,-549.32 159.23,-555.6"/>
</a>
</g>
</g>
<!-- Node18 -->
<g id="Node000018" class="node">
<title>Node18</title>
<g id="a_Node000018"><a xlink:href="group__mag3110__interface__driver.html#gaea7131a526fd9b51ab601ca67b7366f5" target="_top" xlink:title="interface iic bus init">
<polygon fill="white" stroke="#666666" points="290,-498 159.25,-498 159.25,-478 290,-478 290,-498"/>
<text xml:space="preserve" text-anchor="middle" x="224.62" y="-484.5" font-family="Helvetica,sans-Serif" font-size="10.00">mag3110_interface_iic_init</text>
</a>
</g>
</g>
<!-- Node1&#45;&gt;Node18 -->
<g id="edge17_Node000001_Node000018" class="edge">
<title>Node1&#45;&gt;Node18</title>
<g id="a_edge17_Node000001_Node000018"><a xlink:title=" ">
<path fill="none" stroke="#63b8ff" d="M61.09,-653.69C69.76,-625.5 97.79,-546.61 150.25,-507 151.8,-505.83 153.42,-504.73 155.09,-503.7"/>
<polygon fill="#63b8ff" stroke="#63b8ff" points="156.53,-506.89 163.8,-499.19 153.31,-500.68 156.53,-506.89"/>
</a>
</g>
</g>
<!-- Node19 -->
<g id="Node000019" class="node">
<title>Node19</title>
<g id="a_Node000019"><a xlink:href="group__mag3110__interface__driver.html#ga8c3824cd027e8a2408e7b9663201ea80" target="_top" xlink:title="interface iic bus read">
<polygon fill="white" stroke="#666666" points="293,-460 156.25,-460 156.25,-440 293,-440 293,-460"/>
<text xml:space="preserve" text-anchor="middle" x="224.62" y="-446.5" font-family="Helvetica,sans-Serif" font-size="10.00">mag3110_interface_iic_read</text>
</a>
</g>
</g>
<!-- Node1&#45;&gt;Node19 -->
<g id="edge18_Node000001_Node000019" class="edge">
<title>Node1&#45;&gt;Node19</title>
<g id="a_edge18_Node000001_Node000019"><a xlink:title=" ">
<path fill="none" stroke="#63b8ff" d="M59.85,-653.65C65.84,-621.08 88.81,-519.85 150.25,-469 151.55,-467.92 152.9,-466.91 154.3,-465.95"/>
<polygon fill="#63b8ff" stroke="#63b8ff" points="155.79,-469.13 162.77,-461.16 152.34,-463.04 155.79,-469.13"/>
</a>
</g>
</g>
<!-- Node20 -->
<g id="Node000020" class="node">
<title>Node20</title>
<g id="a_Node000020"><a xlink:href="group__mag3110__interface__driver.html#gaaea9f09cfcab587690c02d16a6550dda" target="_top" xlink:title="interface iic bus write">
<polygon fill="white" stroke="#666666" points="281,-422 168.25,-422 168.25,-390 281,-390 281,-422"/>
<text xml:space="preserve" text-anchor="start" x="176.25" y="-408.5" font-family="Helvetica,sans-Serif" font-size="10.00">mag3110_interface_iic</text>
<text xml:space="preserve" text-anchor="middle" x="224.62" y="-396.5" font-family="Helvetica,sans-Serif" font-size="10.00">_write</text>
</a>
</g>
</g>
<!-- Node1&#45;&gt;Node20 -->
<g id="edge19_Node000001_Node000020" class="edge">
<title>Node1&#45;&gt;Node20</title>
<g id="a_edge19_Node000001_Node000020"><a xlink:title=" ">
<path fill="none" stroke="#63b8ff" d="M59.13,-653.96C63.24,-618.26 81.92,-496.12 150.25,-431 152.62,-428.74 155.21,-426.68 157.95,-424.81"/>
<polygon fill="#63b8ff" stroke="#63b8ff" points="159.54,-427.93 166.44,-419.89 156.04,-421.87 159.54,-427.93"/>
</a>
</g>
</g>
<!-- Node21 -->
<g id="Node000021" class="node">
<title>Node21</title>
<g id="a_Node000021"><a xlink:href="group__mag3110__base__driver.html#ga4f213d00534a85f59942054aee3e99c7" target="_top" xlink:title="convert the register raw data to the offset threshold">
<polygon fill="white" stroke="#666666" points="285.5,-372 163.75,-372 163.75,-340 285.5,-340 285.5,-372"/>
<text xml:space="preserve" text-anchor="start" x="171.75" y="-358.5" font-family="Helvetica,sans-Serif" font-size="10.00">mag3110_offset_convert</text>
<text xml:space="preserve" text-anchor="middle" x="224.62" y="-346.5" font-family="Helvetica,sans-Serif" font-size="10.00">_to_data</text>
</a>
</g>
</g>
<!-- Node1&#45;&gt;Node21 -->
<g id="edge20_Node000001_Node000021" class="edge">
<title>Node1&#45;&gt;Node21</title>
<g id="a_edge20_Node000001_Node000021"><a xlink:title=" ">
<path fill="none" stroke="#63b8ff" d="M58.34,-653.59C59.76,-612.76 70.42,-461.93 150.25,-381 151.46,-379.77 152.73,-378.61 154.06,-377.5"/>
<polygon fill="#63b8ff" stroke="#63b8ff" points="156.02,-380.4 162.25,-371.83 152.03,-374.64 156.02,-380.4"/>
</a>
</g>
</g>
<!-- Node22 -->
<g id="Node000022" class="node">
<title>Node22</title>
<g id="a_Node000022"><a xlink:href="group__mag3110__base__driver.html#ga907ed0f26a4550aae81ea55d12d3954e" target="_top" xlink:title="convert the offset to the register raw data">
<polygon fill="white" stroke="#666666" points="285.5,-322 163.75,-322 163.75,-290 285.5,-290 285.5,-322"/>
<text xml:space="preserve" text-anchor="start" x="171.75" y="-308.5" font-family="Helvetica,sans-Serif" font-size="10.00">mag3110_offset_convert</text>
<text xml:space="preserve" text-anchor="middle" x="224.62" y="-296.5" font-family="Helvetica,sans-Serif" font-size="10.00">_to_register</text>
</a>
</g>
</g>
<!-- Node1&#45;&gt;Node22 -->
<g id="edge21_Node000001_Node000022" class="edge">
<title>Node1&#45;&gt;Node22</title>
<g id="a_edge21_Node000001_Node000022"><a xlink:title=" ">
<path fill="none" stroke="#63b8ff" d="M57.75,-653.68C56.68,-608.77 58.47,-428.31 150.25,-331 151.43,-329.75 152.68,-328.55 153.99,-327.42"/>
<polygon fill="#63b8ff" stroke="#63b8ff" points="155.96,-330.32 162.07,-321.67 151.9,-324.61 155.96,-330.32"/>
</a>
</g>
</g>
<!-- Node23 -->
<g id="Node000023" class="node">
<title>Node23</title>
<g id="a_Node000023"><a xlink:href="group__mag3110__base__driver.html#gac97eae7241690821b9120587f880bed7" target="_top" xlink:title="reset">
<polygon fill="white" stroke="#666666" points="265.62,-272 183.62,-272 183.62,-252 265.62,-252 265.62,-272"/>
<text xml:space="preserve" text-anchor="middle" x="224.62" y="-258.5" font-family="Helvetica,sans-Serif" font-size="10.00">mag3110_reset</text>
</a>
</g>
</g>
<!-- Node1&#45;&gt;Node23 -->
<g id="edge22_Node000001_Node000023" class="edge">
<title>Node1&#45;&gt;Node23</title>
<g id="a_edge22_Node000001_Node000023"><a xlink:title=" ">
<path fill="none" stroke="#63b8ff" d="M59.19,-653.62C65.09,-598.11 95.48,-336.73 150.25,-281 156.34,-274.8 164.18,-270.54 172.45,-267.62"/>
<polygon fill="#63b8ff" stroke="#63b8ff" points="173.33,-271.01 182,-264.92 171.43,-264.27 173.33,-271.01"/>
</a>
</g>
</g>
<!-- Node24 -->
<g id="Node000024" class="node">
<title>Node24</title>
<g id="a_Node000024"><a xlink:href="group__mag3110__base__driver.html#ga950e32f370afe8ba8bb93c84a9eaf5d8" target="_top" xlink:title="enable or disable automatic magnetic sensor reset">
<polygon fill="white" stroke="#666666" points="285.88,-234 163.38,-234 163.38,-202 285.88,-202 285.88,-234"/>
<text xml:space="preserve" text-anchor="start" x="171.38" y="-220.5" font-family="Helvetica,sans-Serif" font-size="10.00">mag3110_set_automatic</text>
<text xml:space="preserve" text-anchor="middle" x="224.62" y="-208.5" font-family="Helvetica,sans-Serif" font-size="10.00">_magnetic_sensor_reset</text>
</a>
</g>
</g>
<!-- Node1&#45;&gt;Node24 -->
<g id="edge23_Node000001_Node000024" class="edge">
<title>Node1&#45;&gt;Node24</title>
<g id="a_edge23_Node000001_Node000024"><a xlink:title=" ">
<path fill="none" stroke="#63b8ff" d="M59.01,-653.84C64.25,-595.86 92.94,-307.18 150.25,-243 151.4,-241.71 152.62,-240.49 153.89,-239.34"/>
<polygon fill="#63b8ff" stroke="#63b8ff" points="155.88,-242.22 161.85,-233.47 151.73,-236.59 155.88,-242.22"/>
</a>
</g>
</g>
<!-- Node25 -->
<g id="Node000025" class="node">
<title>Node25</title>
<g id="a_Node000025"><a xlink:href="group__mag3110__base__driver.html#ga3a2637f885d898eec80250da18091d13" target="_top" xlink:title="enable or disable offset correction">
<polygon fill="white" stroke="#666666" points="279.5,-184 169.75,-184 169.75,-152 279.5,-152 279.5,-184"/>
<text xml:space="preserve" text-anchor="start" x="177.75" y="-170.5" font-family="Helvetica,sans-Serif" font-size="10.00">mag3110_set_disable</text>
<text xml:space="preserve" text-anchor="middle" x="224.62" y="-158.5" font-family="Helvetica,sans-Serif" font-size="10.00">_offset_correction</text>
</a>
</g>
</g>
<!-- Node1&#45;&gt;Node25 -->
<g id="edge24_Node000001_Node000025" class="edge">
<title>Node1&#45;&gt;Node25</title>
<g id="a_edge24_Node000001_Node000025"><a xlink:title=" ">
<path fill="none" stroke="#63b8ff" d="M58.75,-653.88C62.77,-592.07 86.82,-265.65 150.25,-193 153.02,-189.82 156.22,-187.05 159.69,-184.63"/>
<polygon fill="#63b8ff" stroke="#63b8ff" points="161.21,-187.79 168.11,-179.76 157.7,-181.73 161.21,-187.79"/>
</a>
</g>
</g>
<!-- Node26 -->
<g id="Node000026" class="node">
<title>Node26</title>
<g id="a_Node000026"><a xlink:href="group__mag3110__base__driver.html#gaa85704f8c31188a6b2db8bc2984a81cb" target="_top" xlink:title="enable or disable fast read mode">
<polygon fill="white" stroke="#666666" points="299,-1028 150.25,-1028 150.25,-1008 299,-1008 299,-1028"/>
<text xml:space="preserve" text-anchor="middle" x="224.62" y="-1014.5" font-family="Helvetica,sans-Serif" font-size="10.00">mag3110_set_fast_read_mode</text>
</a>
</g>
</g>
<!-- Node1&#45;&gt;Node26 -->
<g id="edge25_Node000001_Node000026" class="edge">
<title>Node1&#45;&gt;Node26</title>
<g id="a_edge25_Node000001_Node000026"><a xlink:title=" ">
<path fill="none" stroke="#63b8ff" d="M57.75,-674.26C56.7,-718.89 58.54,-898.17 150.25,-994 153.2,-997.09 156.56,-999.78 160.17,-1002.12"/>
<polygon fill="#63b8ff" stroke="#63b8ff" points="158.44,-1005.16 168.9,-1006.83 161.76,-999 158.44,-1005.16"/>
</a>
</g>
</g>
<!-- Node27 -->
<g id="Node000027" class="node">
<title>Node27</title>
<g id="a_Node000027"><a xlink:href="group__mag3110__base__driver.html#ga2b25ea610db0e9986bac697671450c6e" target="_top" xlink:title="set mode">
<polygon fill="white" stroke="#666666" points="438,-1028 335,-1028 335,-1008 438,-1008 438,-1028"/>
<text xml:space="preserve" text-anchor="middle" x="386.5" y="-1014.5" font-family="Helvetica,sans-Serif" font-size="10.00">mag3110_set_mode</text>
</a>
</g>
</g>
<!-- Node1&#45;&gt;Node27 -->
<g id="edge28_Node000001_Node000027" class="edge">
<title>Node1&#45;&gt;Node27</title>
<g id="a_edge28_Node000001_Node000027"><a xlink:title=" ">
<path fill="none" stroke="#63b8ff" d="M57.94,-674.27C57.78,-716.6 63.07,-879.15 150.25,-961 153.57,-964.12 260.26,-989.15 328.81,-1004.99"/>
<polygon fill="#63b8ff" stroke="#63b8ff" points="327.87,-1008.36 338.4,-1007.2 329.45,-1001.54 327.87,-1008.36"/>
</a>
</g>
</g>
<!-- Node28 -->
<g id="Node000028" class="node">
<title>Node28</title>
<g id="a_Node000028"><a xlink:href="group__mag3110__base__driver.html#gad4ee5691c4f43d8af26011abd31704d5" target="_top" xlink:title="set offset x">
<polygon fill="white" stroke="#666666" points="281.38,-134 167.88,-134 167.88,-114 281.38,-114 281.38,-134"/>
<text xml:space="preserve" text-anchor="middle" x="224.62" y="-120.5" font-family="Helvetica,sans-Serif" font-size="10.00">mag3110_set_offset_x</text>
</a>
</g>
</g>
<!-- Node1&#45;&gt;Node28 -->
<g id="edge29_Node000001_Node000028" class="edge">
<title>Node1&#45;&gt;Node28</title>
<g id="a_edge29_Node000001_Node000028"><a xlink:title=" ">
<path fill="none" stroke="#63b8ff" d="M58.48,-653.62C60.95,-587.13 77.76,-221.41 150.25,-143 152.51,-140.55 155.04,-138.41 157.77,-136.52"/>
<polygon fill="#63b8ff" stroke="#63b8ff" points="159.27,-139.69 166.35,-131.8 155.9,-133.55 159.27,-139.69"/>
</a>
</g>
</g>
<!-- Node29 -->
<g id="Node000029" class="node">
<title>Node29</title>
<g id="a_Node000029"><a xlink:href="group__mag3110__base__driver.html#gafff9a6d768e8a198a09dbe0e5b49e7b9" target="_top" xlink:title="set offset y">
<polygon fill="white" stroke="#666666" points="281.38,-96 167.88,-96 167.88,-76 281.38,-76 281.38,-96"/>
<text xml:space="preserve" text-anchor="middle" x="224.62" y="-82.5" font-family="Helvetica,sans-Serif" font-size="10.00">mag3110_set_offset_y</text>
</a>
</g>
</g>
<!-- Node1&#45;&gt;Node29 -->
<g id="edge30_Node000001_Node000029" class="edge">
<title>Node1&#45;&gt;Node29</title>
<g id="a_edge30_Node000001_Node000029"><a xlink:title=" ">
<path fill="none" stroke="#63b8ff" d="M58.34,-653.77C59.99,-584.96 72.79,-189.77 150.25,-105 152.5,-102.54 155.02,-100.38 157.73,-98.49"/>
<polygon fill="#63b8ff" stroke="#63b8ff" points="159.24,-101.66 166.3,-93.75 155.85,-95.53 159.24,-101.66"/>
</a>
</g>
</g>
<!-- Node30 -->
<g id="Node000030" class="node">
<title>Node30</title>
<g id="a_Node000030"><a xlink:href="group__mag3110__base__driver.html#gacec6b3d376c0c8e6365ba1e3fa48a2c8" target="_top" xlink:title="set offset z">
<polygon fill="white" stroke="#666666" points="281.38,-58 167.88,-58 167.88,-38 281.38,-38 281.38,-58"/>
<text xml:space="preserve" text-anchor="middle" x="224.62" y="-44.5" font-family="Helvetica,sans-Serif" font-size="10.00">mag3110_set_offset_z</text>
</a>
</g>
</g>
<!-- Node1&#45;&gt;Node30 -->
<g id="edge31_Node000001_Node000030" class="edge">
<title>Node1&#45;&gt;Node30</title>
<g id="a_edge31_Node000001_Node000030"><a xlink:title=" ">
<path fill="none" stroke="#63b8ff" d="M58.23,-653.55C59.13,-581.44 67.94,-158 150.25,-67 152.48,-64.53 154.99,-62.36 157.7,-60.46"/>
<polygon fill="#63b8ff" stroke="#63b8ff" points="159.21,-63.63 166.25,-55.71 155.81,-57.51 159.21,-63.63"/>
</a>
</g>
</g>
<!-- Node31 -->
<g id="Node000031" class="node">
<title>Node31</title>
<g id="a_Node000031"><a xlink:href="group__mag3110__base__driver.html#ga029ccf201a07769dc04bbde0b1b12e8f" target="_top" xlink:title="set rate over sample">
<polygon fill="white" stroke="#666666" points="284.38,-1078 164.88,-1078 164.88,-1046 284.38,-1046 284.38,-1078"/>
<text xml:space="preserve" text-anchor="start" x="172.88" y="-1064.5" font-family="Helvetica,sans-Serif" font-size="10.00">mag3110_set_rate_over</text>
<text xml:space="preserve" text-anchor="middle" x="224.62" y="-1052.5" font-family="Helvetica,sans-Serif" font-size="10.00">_sample</text>
</a>
</g>
</g>
<!-- Node1&#45;&gt;Node31 -->
<g id="edge32_Node000001_Node000031" class="edge">
<title>Node1&#45;&gt;Node31</title>
<g id="a_edge32_Node000001_Node000031"><a xlink:title=" ">
<path fill="none" stroke="#63b8ff" d="M59.35,-674.4C65.93,-728.87 98.85,-980.96 150.25,-1037 151.79,-1038.67 153.44,-1040.24 155.18,-1041.69"/>
<polygon fill="#63b8ff" stroke="#63b8ff" points="153.12,-1044.52 163.35,-1047.29 157.08,-1038.75 153.12,-1044.52"/>
</a>
</g>
</g>
<!-- Node32 -->
<g id="Node000032" class="node">
<title>Node32</title>
<g id="a_Node000032"><a xlink:href="group__mag3110__base__driver.html#ga133287a58c6b68c5f9eee98f9c90b1fb" target="_top" xlink:title="enable or disable trigger mode">
<polygon fill="white" stroke="#666666" points="292.25,-20 157,-20 157,0 292.25,0 292.25,-20"/>
<text xml:space="preserve" text-anchor="middle" x="224.62" y="-6.5" font-family="Helvetica,sans-Serif" font-size="10.00">mag3110_set_trigger_mode</text>
</a>
</g>
</g>
<!-- Node1&#45;&gt;Node32 -->
<g id="edge35_Node000001_Node000032" class="edge">
<title>Node1&#45;&gt;Node32</title>
<g id="a_edge35_Node000001_Node000032"><a xlink:title=" ">
<path fill="none" stroke="#63b8ff" d="M58.12,-653.85C58.29,-580.08 62.89,-126.47 150.25,-29 150.83,-28.36 151.42,-27.73 152.03,-27.13"/>
<polygon fill="#63b8ff" stroke="#63b8ff" points="153.85,-30.15 159.66,-21.28 149.6,-24.59 153.85,-30.15"/>
</a>
</g>
</g>
<!-- Node26&#45;&gt;Node6 -->
<g id="edge26_Node000026_Node000006" class="edge">
<title>Node26&#45;&gt;Node6</title>
<g id="a_edge26_Node000026_Node000006"><a xlink:title=" ">
<path fill="none" stroke="#63b8ff" d="M266.81,-1028.45C277.32,-1031.18 288.59,-1034.15 299,-1037 312.06,-1040.58 326.19,-1044.6 339.16,-1048.35"/>
<polygon fill="#63b8ff" stroke="#63b8ff" points="338.18,-1051.71 348.76,-1051.14 340.13,-1044.99 338.18,-1051.71"/>
</a>
</g>
</g>
<!-- Node26&#45;&gt;Node27 -->
<g id="edge27_Node000026_Node000027" class="edge">
<title>Node26&#45;&gt;Node27</title>
<g id="a_edge27_Node000026_Node000027"><a xlink:title=" ">
<path fill="none" stroke="#63b8ff" d="M299.48,-1018C307.5,-1018 315.61,-1018 323.48,-1018"/>
<polygon fill="#63b8ff" stroke="#63b8ff" points="323.27,-1021.5 333.27,-1018 323.27,-1014.5 323.27,-1021.5"/>
</a>
</g>
</g>
<!-- Node31&#45;&gt;Node6 -->
<g id="edge33_Node000031_Node000006" class="edge">
<title>Node31&#45;&gt;Node6</title>
<g id="a_edge33_Node000031_Node000006"><a xlink:title=" ">
<path fill="none" stroke="#63b8ff" d="M284.7,-1062C297.23,-1062 310.5,-1062 323.15,-1062"/>
<polygon fill="#63b8ff" stroke="#63b8ff" points="323.04,-1065.5 333.04,-1062 323.04,-1058.5 323.04,-1065.5"/>
</a>
</g>
</g>
<!-- Node31&#45;&gt;Node27 -->
<g id="edge34_Node000031_Node000027" class="edge">
<title>Node31&#45;&gt;Node27</title>
<g id="a_edge34_Node000031_Node000027"><a xlink:title=" ">
<path fill="none" stroke="#63b8ff" d="M284.7,-1045.74C301.76,-1041.05 320.18,-1035.98 336.55,-1031.47"/>
<polygon fill="#63b8ff" stroke="#63b8ff" points="337.34,-1034.89 346.05,-1028.86 335.48,-1028.14 337.34,-1034.89"/>
</a>
</g>
</g>
</g>
</svg>
